<svg id="Layer_1" data-name="Layer 1" xmlns="http://www.w3.org/2000/svg" viewBox="0 0 149.54 9.66"><defs><style>.cls-1{fill:#231f20;}</style></defs><title>wordmark-uofm-black-and-white</title><path class="cls-1" d="M143.17,2.33l.05,1.85H143c-.22-1.19-.51-1.38-2.07-1.38V8.32a.82.82,0,0,0,.93.93v.26H139V9.25a.82.82,0,0,0,.93-.93V2.8c-1.56,0-1.85.2-2.07,1.38h-.24l.05-1.85Z"/><path class="cls-1" d="M133.58,2.19c-1.77,0-3.21,1.46-3.21,3.72s1.44,3.72,3.21,3.72,3.21-1.46,3.21-3.72S135.36,2.19,133.58,2.19Zm0,7c-1.34,0-2.11-1.29-2.11-3.3s.77-3.3,2.11-3.3,2.12,1.29,2.12,3.3S134.93,9.21,133.58,9.21Z"/><path class="cls-1" d="M148.78,8.63l-2.54-6.4H146s-2.13,5.56-2.39,6.21-.58.81-.83.81v.26h2V9.25a.58.58,0,0,1-.61-.51.88.88,0,0,1,0-.27l.48-1.29h2.49l.46,1.25a1.1,1.1,0,0,1,.08.32c0,.28-.22.51-.64.51v.26h2.52V9.25A.93.93,0,0,1,148.78,8.63Zm-4-2,1.06-2.87,1.05,2.87Z"/><path class="cls-1" d="M123.23,7.65A1.86,1.86,0,0,1,121.37,9h-1.14c-.42,0-.6-.14-.6-.49V6h1.55c.6,0,.91.34,1,1h.24V4.5h-.26c0,.69-.39,1-.93,1h-1.6V3.12c0-.26.17-.32.39-.32h1.38c.86,0,1.16.35,1.34,1.16H123l-.06-1.62h-5.17v.26c.6,0,.88.29.88.93V8.32c0,.65-.28.93-.88.93v.26h5.3l.46-1.87Z"/><path class="cls-1" d="M128.7,2.18l.21,2.37h-.26c-.35-1.17-1-1.88-1.81-1.88a.91.91,0,0,0-1,1c0,.63.47,1,1,1.4l1.16.78a2.33,2.33,0,0,1,1,1.81,2,2,0,0,1-2,2c-.71,0-1.16-.36-1.51-.36-.2,0-.29.2-.34.36H125l-.3-2.39h.26c.44,1.22,1.08,1.94,2,1.94A1.13,1.13,0,0,0,128.1,8a1.48,1.48,0,0,0-.78-1.31l-1.42-1A1.91,1.91,0,0,1,125,4a1.71,1.71,0,0,1,1.77-1.81c.48,0,1,.32,1.32.32a.32.32,0,0,0,.34-.32Z"/><path class="cls-1" d="M114.43,2.33v.26c.56,0,.89.43.89,1.08V7.45l-3.73-5.12H110v.26a.91.91,0,0,1,.71.32l.21.28V8c0,.82-.28,1.25-.93,1.25v.26h2.29V9.25c-.56,0-.89-.37-.89-1V3.82l4.29,5.81h.15V3.84c0-.91.37-1.25.93-1.25V2.33Z"/><path class="cls-1" d="M106.46,2.33v.26c.56,0,.89.43.89,1.08V7.45l-3.73-5.12H102v.26a.91.91,0,0,1,.71.32l.21.28V8c0,.82-.28,1.25-.93,1.25v.26h2.29V9.25c-.56,0-.9-.37-.9-1V3.82l4.29,5.81h.15V3.84c0-.91.37-1.25.93-1.25V2.33Z"/><path class="cls-1" d="M96.83.26V0H94.61L91.72,7.76,88.81,0H86.55V.26c1,0,1.21.52,1.21,1.46V7.55c0,1.35-.38,1.7-1.23,1.7v.26h2.93V9.25c-.82,0-1.21-.35-1.21-1.7V1.46l3,8.08h.28l3.08-8.23V7.55c0,1.35-.31,1.7-1.16,1.7v.26h3.36V9.25c-.82,0-1.14-.35-1.14-1.7v-6C95.7.5,96.27.26,96.83.26Z"/><path class="cls-1" d="M99.57,3.53a.82.82,0,0,1,.93-.93V2.33H97.62v.26a.82.82,0,0,1,.93.93V8.32a.82.82,0,0,1-.93.93v.26h2.89V9.25a.82.82,0,0,1-.93-.93Z"/><path class="cls-1" d="M73.09,2.2c-1.77,0-3.21,1.46-3.21,3.72s1.44,3.72,3.21,3.72S76.3,8.19,76.3,5.92,74.87,2.2,73.09,2.2Zm0,7C71.75,9.22,71,7.93,71,5.92s.77-3.3,2.12-3.3,2.11,1.29,2.11,3.3S74.44,9.22,73.09,9.22Z"/><path class="cls-1" d="M82.53,2.33H77.3v.26c.6,0,.87.29.87.93V8.32c0,.65-.27.93-.87.93v.26h2.78V9.25a.82.82,0,0,1-.92-.93V6h1.49c.6,0,.92.34,1,1h.24V4.5h-.26c0,.69-.39,1-.93,1H79.17V3.12c0-.26.17-.32.39-.32H81c.86,0,1.15.35,1.34,1.16h.24Z"/><path class="cls-1" d="M58.54,2.34l.06,1.85h-.24c-.22-1.18-.51-1.38-2.07-1.38V8.33a.82.82,0,0,0,.93.93v.26H54.33V9.26a.82.82,0,0,0,.93-.93V2.81c-1.56,0-1.85.2-2.07,1.38h-.24L53,2.34Z"/><path class="cls-1" d="M64.08,2.6V2.34h2.2V2.6a1.54,1.54,0,0,0-1,.69L63.48,6.24V8.33c0,.7.26.93,1,.93v.26h-3V9.26c.75,0,1-.24,1-.93v-2l-1.9-3a1.4,1.4,0,0,0-1-.71V2.34h2.84V2.6c-.39,0-.67.18-.67.38a.88.88,0,0,0,.11.37l1.44,2.37,1.42-2.46A.48.48,0,0,0,64.74,3C64.74,2.84,64.62,2.6,64.08,2.6Z"/><path class="cls-1" d="M47.09,2.18l.21,2.37H47c-.36-1.17-1-1.88-1.81-1.88a.91.91,0,0,0-1,1c0,.63.46,1,1,1.4l1.16.78a2.33,2.33,0,0,1,1,1.81,2,2,0,0,1-2,2c-.71,0-1.16-.36-1.51-.36-.19,0-.29.2-.33.36h-.24l-.3-2.39h.26c.44,1.22,1.08,1.94,2,1.94A1.13,1.13,0,0,0,46.49,8a1.48,1.48,0,0,0-.79-1.31l-1.42-1A1.91,1.91,0,0,1,43.39,4a1.71,1.71,0,0,1,1.77-1.81c.48,0,1,.32,1.32.32a.32.32,0,0,0,.34-.32Z"/><path class="cls-1" d="M51,3.54A.82.82,0,0,1,52,2.6V2.34H49.08V2.6a.82.82,0,0,1,.93.93V8.33a.82.82,0,0,1-.93.93v.26H52V9.26A.82.82,0,0,1,51,8.33Z"/><path class="cls-1" d="M34.59,7.65A1.86,1.86,0,0,1,32.72,9H31.58c-.42,0-.6-.14-.6-.49V6h1.55c.6,0,.92.34,1,1h.24V4.5h-.26c0,.69-.39,1-.93,1H31V3.12c0-.26.17-.32.39-.32h1.38c.86,0,1.16.35,1.34,1.16h.24l-.06-1.62H29.12v.26c.6,0,.87.29.87.93V8.32c0,.65-.27.93-.87.93v.26h5.3l.47-1.87Z"/><path class="cls-1" d="M41.42,8.94c-.17-.2-1.76-2.38-2.11-2.87C40.59,5.79,41,5.14,41,4.2c0-1.12-.84-1.87-2.37-1.87H35.8v.26c.6,0,.88.29.88.93V8.32c0,.65-.28.93-.88.93v.26h2.78V9.25c-.6,0-.88-.29-.88-.93V6.21l.55,0,2.33,3.32h1.57V9.29A1,1,0,0,1,41.42,8.94ZM37.7,5.78V3.36c0-.5.1-.62.65-.62,1.21,0,1.66.6,1.66,1.49,0,1.1-.83,1.55-2.07,1.55Z"/><path class="cls-1" d="M19.37,3.53a.82.82,0,0,1,.93-.93V2.33H17.41v.26a.82.82,0,0,1,.93.93V8.32a.82.82,0,0,1-.93.93v.26H20.3V9.25a.82.82,0,0,1-.93-.93Z"/><path class="cls-1" d="M24.1,2.59V2.33H21.47v.26c.32,0,.65.21.88.75l2.59,6.29h.17s2.07-5.78,2.26-6.29.5-.75.8-.75V2.33h-2v.26c.45,0,.69.24.69.56a.81.81,0,0,1-.06.28L25.26,7.67,23.47,3.37A.86.86,0,0,1,23.41,3C23.41,2.77,23.65,2.59,24.1,2.59Z"/><path class="cls-1" d="M0,.26c.78,0,1.19.39,1.19,1.51V6.21A3.07,3.07,0,0,0,4.57,9.65,3.05,3.05,0,0,0,7.84,6.36V1.51C7.84.77,8.06.26,9,.26V0H6.12V.26c.8,0,1.14.36,1.16,1.32s.07,3.51.07,5A2.38,2.38,0,0,1,4.79,9.07,2.38,2.38,0,0,1,2.26,6.46v-5C2.26.76,2.54.26,3.38.26V0H0Z"/><path class="cls-1" d="M13.62,2.33v.26c.56,0,.89.43.89,1.08V7.45L10.78,2.33H9.16v.26a.91.91,0,0,1,.71.32l.21.28V8c0,.82-.28,1.25-.93,1.25v.26h2.29V9.25c-.56,0-.89-.37-.89-1V3.82l4.29,5.81H15V3.84c0-.91.37-1.25.93-1.25V2.33Z"/></svg>