<svg xmlns="http://www.w3.org/2000/svg" viewBox="0 0 355.4 39.7"><title>EDPSYCHAsset 19</title><g id="Layer_2" data-name="Layer 2"><g id="Layer_1-2" data-name="Layer 1"><path d="M0,15.5V.6H5.2a7.8,7.8,0,0,1,3.1.6,6.4,6.4,0,0,1,2.3,1.6,6.7,6.7,0,0,1,1.4,2.4,9.1,9.1,0,0,1,.5,2.9,8.9,8.9,0,0,1-.5,3.1,6.6,6.6,0,0,1-1.4,2.4A6.5,6.5,0,0,1,8.1,15a7.9,7.9,0,0,1-3,.5ZM10.5,8.1a7.4,7.4,0,0,0-.3-2.3,5,5,0,0,0-1-1.8A4.8,4.8,0,0,0,7.4,2.7a5.6,5.6,0,0,0-2.2-.4H1.9V13.9H5.2a5.6,5.6,0,0,0,2.3-.4,4.6,4.6,0,0,0,1.7-1.2,5.4,5.4,0,0,0,1-1.8A7.3,7.3,0,0,0,10.5,8.1Z" fill="#231f20"/><path d="M19.6,15.8a5.6,5.6,0,0,1-2.3-.5,5.4,5.4,0,0,1-1.8-1.2,5.6,5.6,0,0,1-1.1-1.8,5.9,5.9,0,0,1-.4-2.2,5.9,5.9,0,0,1,.4-2.2,5.5,5.5,0,0,1,1.2-1.8,5.5,5.5,0,0,1,1.8-1.2,5.6,5.6,0,0,1,2.3-.5,5.3,5.3,0,0,1,5.1,3.5,5.9,5.9,0,0,1,.4,2.1c0,.2,0,.3,0,.4v.3H16a4.2,4.2,0,0,0,.4,1.5,3.8,3.8,0,0,0,.8,1.2,3.8,3.8,0,0,0,1.1.8l1.4.3h1l.9-.4.7-.6a2.3,2.3,0,0,0,.5-.8l1.6.4a4,4,0,0,1-.7,1.1l-1.1.9-1.4.6Zm3.8-6.4A4,4,0,0,0,23,7.9a3.9,3.9,0,0,0-.8-1.1L21,6l-1.4-.3L18.3,6a3.6,3.6,0,0,0-1.1.7,3.7,3.7,0,0,0-.8,1.1A4.1,4.1,0,0,0,16,9.3Z" fill="#231f20"/><path d="M33.1,15.8a4.3,4.3,0,0,1-2.4-.7A5.1,5.1,0,0,1,29,13.4V20H27.2V4.6h1.6V6.6A5.1,5.1,0,0,1,30.5,5a4.4,4.4,0,0,1,2.3-.6,4.7,4.7,0,0,1,2.1.5,5.2,5.2,0,0,1,1.6,1.3,5.9,5.9,0,0,1,1.1,1.8,6,6,0,0,1,.4,2.1,6.8,6.8,0,0,1-.4,2.2,5.5,5.5,0,0,1-1,1.8A4.9,4.9,0,0,1,35,15.3,4.4,4.4,0,0,1,33.1,15.8Zm-.6-1.6a3.1,3.1,0,0,0,1.5-.3,3.6,3.6,0,0,0,1.1-.9,4.2,4.2,0,0,0,.7-1.3,4.6,4.6,0,0,0,.3-1.5A4.3,4.3,0,0,0,35,7.2a3.8,3.8,0,0,0-1.2-.9A3.4,3.4,0,0,0,32.3,6l-1,.2-1,.5-.8.8a2.4,2.4,0,0,0-.5,1v3.1l.6,1,.8.8,1,.5Z" fill="#231f20"/><path d="M43.1,15.8l-1.5-.3a3.8,3.8,0,0,1-1.2-.7,3.2,3.2,0,0,1-.8-1.1,3.1,3.1,0,0,1-.3-1.3,3,3,0,0,1,.3-1.4,3.2,3.2,0,0,1,1-1.1,4.6,4.6,0,0,1,1.5-.7L44,8.9h1.6l1.4.4V8.6a2.9,2.9,0,0,0-.8-2.1,2.9,2.9,0,0,0-2.1-.8A6.1,6.1,0,0,0,40.7,7L40,5.8a9.1,9.1,0,0,1,2.1-1.1,6.7,6.7,0,0,1,2.2-.4,4.6,4.6,0,0,1,3.3,1.2,4.3,4.3,0,0,1,1.2,3.3v4.5q0,.7.6.7v1.6h-.8l-.9-.3a1,1,0,0,1-.5-.9v-.8l-.9.9-1,.6-1.1.4Zm.5-1.4a4.2,4.2,0,0,0,1.7-.4,3.9,3.9,0,0,0,1.3-.9,1.4,1.4,0,0,0,.4-.9V10.6l-1.4-.4H44.3a4,4,0,0,0-2.3.6,1.8,1.8,0,0,0-.9,1.6,2,2,0,0,0,.7,1.5l.8.5Z" fill="#231f20"/><path d="M57.7,6.2a4.8,4.8,0,0,0-2.4.7,3.6,3.6,0,0,0-1.5,1.9v6.8H51.9V4.6h1.7V7.1a5.6,5.6,0,0,1,1.5-1.9,3.1,3.1,0,0,1,2-.7h.6Z" fill="#231f20"/><path d="M65.2,15l-.4.2-.6.2-.8.2h-.9a2.8,2.8,0,0,1-1.7-.6,2,2,0,0,1-.7-1.7V6H58.5V4.6H60V.9h1.8V4.6h2.5V6H61.9v6.8a1.1,1.1,0,0,0,.4.9,1.3,1.3,0,0,0,.8.3l1-.2.6-.3Z" fill="#231f20"/><path d="M83.3,15.5H81.4V9.4a4.6,4.6,0,0,0-.6-2.5A1.9,1.9,0,0,0,79.2,6a2.9,2.9,0,0,0-2,.8,4.4,4.4,0,0,0-1.3,2.1v6.6H74.1V9.4a4.7,4.7,0,0,0-.5-2.6A1.9,1.9,0,0,0,71.9,6a3,3,0,0,0-2,.8,4.3,4.3,0,0,0-1.3,2.1v6.6H66.8V4.6h1.7V6.9a5,5,0,0,1,1.7-1.9,4.5,4.5,0,0,1,2.4-.7,3.1,3.1,0,0,1,2.2.7,3.2,3.2,0,0,1,1,1.9A4.6,4.6,0,0,1,80,4.4a3.3,3.3,0,0,1,1.6.3,2.7,2.7,0,0,1,1,1,4.5,4.5,0,0,1,.5,1.5A9.4,9.4,0,0,1,83.3,9Z" fill="#231f20"/><path d="M91,15.8a5.6,5.6,0,0,1-2.3-.5,5.4,5.4,0,0,1-1.8-1.2,5.6,5.6,0,0,1-1.1-1.8,5.9,5.9,0,0,1-.4-2.2,5.8,5.8,0,0,1,.4-2.2,5.5,5.5,0,0,1,1.2-1.8,5.5,5.5,0,0,1,1.8-1.2A5.6,5.6,0,0,1,91,4.4a5.3,5.3,0,0,1,5.1,3.5,5.9,5.9,0,0,1,.4,2.1c0,.2,0,.3,0,.4v.3H87.3a4.2,4.2,0,0,0,.4,1.5,3.8,3.8,0,0,0,.8,1.2,3.8,3.8,0,0,0,1.1.8l1.4.3h1l.9-.4.7-.6a2.3,2.3,0,0,0,.5-.8l1.6.4a4,4,0,0,1-.7,1.1l-1.1.9-1.4.6Zm3.8-6.4a4,4,0,0,0-.4-1.4,3.9,3.9,0,0,0-.8-1.1L92.4,6,91,5.8,89.6,6a3.6,3.6,0,0,0-1.1.7,3.7,3.7,0,0,0-.8,1.1,4.1,4.1,0,0,0-.4,1.4Z" fill="#231f20"/><path d="M108,15.5h-1.8V9.4a4.7,4.7,0,0,0-.5-2.6A1.8,1.8,0,0,0,104,6l-1.1.2-1.1.6-.9.9a3.9,3.9,0,0,0-.6,1.2v6.6H98.5V4.6h1.7V6.9A4.8,4.8,0,0,1,102,5.1a5.4,5.4,0,0,1,2.7-.7,3.2,3.2,0,0,1,1.6.3,2.7,2.7,0,0,1,1,1,4.3,4.3,0,0,1,.5,1.5A10,10,0,0,1,108,9Z" fill="#231f20"/><path d="M116.4,15l-.4.2-.6.2-.8.2h-.9a2.8,2.8,0,0,1-1.7-.6,2,2,0,0,1-.7-1.7V6h-1.5V4.6h1.5V.9h1.8V4.6h2.5V6h-2.5v6.8a1.1,1.1,0,0,0,.4.9,1.3,1.3,0,0,0,.8.3l1-.2.6-.3Z" fill="#231f20"/><path d="M128.1,15.8a5.4,5.4,0,0,1-4-1.7,5.6,5.6,0,0,1-1.1-1.8,5.9,5.9,0,0,1-.4-2.2,5.9,5.9,0,0,1,.4-2.2,5.7,5.7,0,0,1,1.1-1.8,5.4,5.4,0,0,1,1.7-1.2,5.4,5.4,0,0,1,2.2-.5,5.4,5.4,0,0,1,4,1.7,5.7,5.7,0,0,1,1.1,1.8,5.8,5.8,0,0,1,.4,2.2,5.9,5.9,0,0,1-.4,2.2,5.5,5.5,0,0,1-2.9,3A5.4,5.4,0,0,1,128.1,15.8Zm-3.6-5.6a4.4,4.4,0,0,0,.3,1.6,4.1,4.1,0,0,0,.8,1.3,3.7,3.7,0,0,0,1.2.9,3.3,3.3,0,0,0,2.8,0,3.7,3.7,0,0,0,1.2-.9,4.1,4.1,0,0,0,.8-1.3,4.5,4.5,0,0,0,.3-1.6,4.4,4.4,0,0,0-.3-1.6,4.1,4.1,0,0,0-.8-1.3,3.7,3.7,0,0,0-1.2-.9,3.3,3.3,0,0,0-1.4-.3,3.2,3.2,0,0,0-1.4.3,3.7,3.7,0,0,0-1.2.9,4.2,4.2,0,0,0-.8,1.3A4.5,4.5,0,0,0,124.5,10.1Z" fill="#231f20"/><path d="M136.4,15.5V7.3h-1.5V5.9h1.5V4.3a5.1,5.1,0,0,1,.9-3.2A3,3,0,0,1,139.8,0l1.3.2,1.1.5L141.7,2l-.7-.3h-.9a1.6,1.6,0,0,0-1.4.7,3.5,3.5,0,0,0-.5,2V5.9h2.9V7.3h-2.9v8.2Z" fill="#231f20"/><path d="M12.4,36.5v3H.1V21.8H12.2v3H3.5v4.3H11v2.8H3.5v4.6Z" fill="#231f20"/><path d="M15.7,39.5V21.8h6.4a9.6,9.6,0,0,1,3.8.7,7.7,7.7,0,0,1,4.4,4.7,10.6,10.6,0,0,1,.5,3.4,10.4,10.4,0,0,1-.6,3.7,7.8,7.8,0,0,1-1.8,2.8,7.9,7.9,0,0,1-2.8,1.8,9.8,9.8,0,0,1-3.6.6Zm11.7-8.9a7.6,7.6,0,0,0-.3-2.3,5.3,5.3,0,0,0-1-1.8,4.6,4.6,0,0,0-1.7-1.2,5.6,5.6,0,0,0-2.2-.4h-3V36.5h3a5.4,5.4,0,0,0,2.3-.4A4.6,4.6,0,0,0,26,34.8,5.5,5.5,0,0,0,27,33,7.5,7.5,0,0,0,27.4,30.6Z" fill="#231f20"/><path d="M41.6,36.6a4,4,0,0,0,2.1-.5A4,4,0,0,0,45,34.8a5.4,5.4,0,0,0,.7-1.8,10.6,10.6,0,0,0,.2-2.1v-9h3.4v9a12.9,12.9,0,0,1-.4,3.4,7.9,7.9,0,0,1-1.4,2.8A6.6,6.6,0,0,1,45.1,39a8.2,8.2,0,0,1-3.5.7,8.1,8.1,0,0,1-3.6-.7,6.7,6.7,0,0,1-2.4-2,7.8,7.8,0,0,1-1.3-2.8,13.2,13.2,0,0,1-.4-3.3v-9h3.4v9a10.8,10.8,0,0,0,.2,2.2,5.4,5.4,0,0,0,.7,1.8,3.8,3.8,0,0,0,3.4,1.8Z" fill="#231f20"/><path d="M52.3,30.5a9.4,9.4,0,0,1,.6-3.2,8.9,8.9,0,0,1,1.7-2.8,8.4,8.4,0,0,1,2.7-2,8.1,8.1,0,0,1,3.6-.8,7.7,7.7,0,0,1,4.1,1.1,6.6,6.6,0,0,1,2.6,2.8l-2.7,1.8a4,4,0,0,0-.8-1.3l-1-.8-1.2-.4H60.7a4.3,4.3,0,0,0-2.2.5A4.8,4.8,0,0,0,57,26.6a6.1,6.1,0,0,0-.9,1.9,7.4,7.4,0,0,0-.3,2.1,7.1,7.1,0,0,0,.4,2.3,6.1,6.1,0,0,0,1,1.9,5.2,5.2,0,0,0,1.6,1.3,4.2,4.2,0,0,0,2,.5h1.2l1.2-.5,1-.8a4.1,4.1,0,0,0,.8-1.2l2.8,1.6a5.2,5.2,0,0,1-1.2,1.8,7.4,7.4,0,0,1-1.7,1.3l-2.1.8-2.1.3a7.2,7.2,0,0,1-3.4-.8,8.9,8.9,0,0,1-2.7-2.1,9.5,9.5,0,0,1-1.7-2.9A9.4,9.4,0,0,1,52.3,30.5Z" fill="#231f20"/><path d="M68.5,39.5l7-17.7h2.8l7,17.7H81.6L80,35.1H73.8l-1.6,4.4Zm8.4-14-2.5,7.2h5Z" fill="#231f20"/><path d="M99.3,24.8H93.7V39.5H90.2V24.8H84.5v-3H99.3Z" fill="#231f20"/><path d="M102,39.5V21.8h3.4V39.5Z" fill="#231f20"/><path d="M117.1,39.7a7.6,7.6,0,0,1-3.4-.8,8.5,8.5,0,0,1-2.7-2,9.1,9.1,0,0,1-1.7-2.9,9.5,9.5,0,0,1-.6-3.3,9.3,9.3,0,0,1,2.4-6.3,8.6,8.6,0,0,1,2.7-2,7.8,7.8,0,0,1,3.4-.7,7.5,7.5,0,0,1,3.4.8,8.6,8.6,0,0,1,2.7,2.1,9.4,9.4,0,0,1,1.7,2.9,9.5,9.5,0,0,1,.6,3.3,9.1,9.1,0,0,1-.6,3.4,9.2,9.2,0,0,1-1.8,2.8,8.5,8.5,0,0,1-2.7,2A7.8,7.8,0,0,1,117.1,39.7Zm-4.9-9a7.4,7.4,0,0,0,.3,2.2,6,6,0,0,0,1,1.9,4.9,4.9,0,0,0,1.6,1.3,4.3,4.3,0,0,0,2.1.5,4.2,4.2,0,0,0,2.1-.5,4.8,4.8,0,0,0,1.5-1.4,6.3,6.3,0,0,0,1-1.9,7.4,7.4,0,0,0,.3-2.2,7.1,7.1,0,0,0-.4-2.2,6.2,6.2,0,0,0-1-1.9,4.8,4.8,0,0,0-1.5-1.3,4.3,4.3,0,0,0-2.1-.5,4.2,4.2,0,0,0-2.1.5,5,5,0,0,0-1.6,1.3,6,6,0,0,0-1,1.9A7.3,7.3,0,0,0,112.1,30.7Z" fill="#231f20"/><path d="M132.1,28.2V39.5h-3.5V21.8h2.7l9.3,11.7V21.8h3.5V39.5h-2.8Z" fill="#231f20"/><path d="M146.5,39.5l7-17.7h2.8l7,17.7h-3.7L158,35.1h-6.2l-1.6,4.4Zm8.4-14-2.5,7.2h5Z" fill="#231f20"/><path d="M165.6,39.5V21.8h3.5V36.5h9v3Z" fill="#231f20"/><path d="M186.7,39.5V21.8h7.5a5,5,0,0,1,2.3.5,5.9,5.9,0,0,1,1.8,1.3,6.4,6.4,0,0,1,1.2,1.9,5.7,5.7,0,0,1,.4,2.1,6.2,6.2,0,0,1-.4,2.2,6.1,6.1,0,0,1-1.1,1.9,5.5,5.5,0,0,1-1.7,1.3,5.1,5.1,0,0,1-2.2.5h-4.2v6Zm3.4-9h4a2,2,0,0,0,1.6-.8,3.2,3.2,0,0,0,.6-2.1,3.5,3.5,0,0,0-.2-1.2,2.9,2.9,0,0,0-.5-.9l-.8-.6-.9-.2h-3.9Z" fill="#231f20"/><path d="M213.3,26.4l-.6-.5-1.1-.6-1.4-.5-1.6-.2a3.5,3.5,0,0,0-2.1.5,1.7,1.7,0,0,0-.7,1.5,1.5,1.5,0,0,0,.3.9l.8.6,1.3.5,1.8.5,2.4.8a6.4,6.4,0,0,1,1.8,1,4.1,4.1,0,0,1,1.1,1.4,4.8,4.8,0,0,1,.4,2.1,5.1,5.1,0,0,1-.5,2.4,4.6,4.6,0,0,1-1.4,1.6,6.1,6.1,0,0,1-2.1.9l-2.5.3a13.3,13.3,0,0,1-4-.6,12.2,12.2,0,0,1-3.5-1.7l1.5-3,.8.6,1.4.7,1.8.6,2,.3q2.8,0,2.8-1.8a1.5,1.5,0,0,0-.3-1,2.8,2.8,0,0,0-.9-.7l-1.5-.5-1.9-.5-2.2-.8a6,6,0,0,1-1.6-1,3.5,3.5,0,0,1-.9-1.3,4.6,4.6,0,0,1-.3-1.8,5.5,5.5,0,0,1,.5-2.4,4.8,4.8,0,0,1,1.4-1.7,6.3,6.3,0,0,1,2.1-1.1,8.5,8.5,0,0,1,2.5-.4,9.8,9.8,0,0,1,3.4.6,12.8,12.8,0,0,1,2.8,1.4Z" fill="#231f20"/><path d="M219.9,21.8l4.4,8.5,4.4-8.5h3.7L226,33.3v6.2h-3.4V33.3l-6.4-11.5Z" fill="#231f20"/><path d="M233.6,30.5a9.4,9.4,0,0,1,.6-3.2,8.9,8.9,0,0,1,1.7-2.8,8.4,8.4,0,0,1,2.7-2,8.1,8.1,0,0,1,3.6-.8,7.7,7.7,0,0,1,4.1,1.1,6.6,6.6,0,0,1,2.6,2.8l-2.6,1.8a4,4,0,0,0-.8-1.3l-1-.8-1.2-.4H242a4.3,4.3,0,0,0-2.2.5,4.8,4.8,0,0,0-1.5,1.4,6.1,6.1,0,0,0-.9,1.9,7.4,7.4,0,0,0-.3,2.1,7.1,7.1,0,0,0,.4,2.3,6.1,6.1,0,0,0,1,1.9,5.2,5.2,0,0,0,1.6,1.3,4.2,4.2,0,0,0,2,.5h1.2l1.2-.5,1-.8a4.1,4.1,0,0,0,.8-1.2l2.8,1.6a5.2,5.2,0,0,1-1.2,1.8,7.4,7.4,0,0,1-1.7,1.3l-2,.8-2.1.3a7.2,7.2,0,0,1-3.4-.8,8.9,8.9,0,0,1-2.6-2.1,9.7,9.7,0,0,1-2.3-6.3Z" fill="#231f20"/><path d="M266.9,21.8V39.5h-3.4V32h-8v7.6h-3.5V21.8h3.5V29h8V21.8Z" fill="#231f20"/><path d="M278.4,39.7a7.6,7.6,0,0,1-3.4-.8,8.5,8.5,0,0,1-2.7-2,9.1,9.1,0,0,1-1.7-2.9,9.5,9.5,0,0,1-.6-3.3,9.4,9.4,0,0,1,2.4-6.3,8.6,8.6,0,0,1,2.7-2,7.8,7.8,0,0,1,3.4-.7,7.5,7.5,0,0,1,3.4.8,8.6,8.6,0,0,1,2.7,2.1,9.4,9.4,0,0,1,1.7,2.9,9.5,9.5,0,0,1,.6,3.3,9.1,9.1,0,0,1-.6,3.4,9.2,9.2,0,0,1-1.8,2.8,8.5,8.5,0,0,1-2.7,2A7.8,7.8,0,0,1,278.4,39.7Zm-4.9-9a7.4,7.4,0,0,0,.3,2.2,6,6,0,0,0,1,1.9,4.9,4.9,0,0,0,1.6,1.3,4.3,4.3,0,0,0,2.1.5,4.2,4.2,0,0,0,2.1-.5,4.8,4.8,0,0,0,1.5-1.4,6.3,6.3,0,0,0,1-1.9,7.3,7.3,0,0,0,.3-2.2,7.1,7.1,0,0,0-.4-2.2,6.2,6.2,0,0,0-1-1.9,4.8,4.8,0,0,0-1.5-1.3,4.3,4.3,0,0,0-2.1-.5,4.2,4.2,0,0,0-2.1.5,5,5,0,0,0-1.5,1.3,6,6,0,0,0-1,1.9A7.3,7.3,0,0,0,273.5,30.7Z" fill="#231f20"/><path d="M290.1,39.5V21.8h3.5V36.5h9v3Z" fill="#231f20"/><path d="M312,39.7a7.6,7.6,0,0,1-3.4-.8,8.5,8.5,0,0,1-2.7-2,9.1,9.1,0,0,1-1.7-2.9,9.5,9.5,0,0,1-.6-3.3,9.4,9.4,0,0,1,2.4-6.3,8.6,8.6,0,0,1,2.7-2,7.8,7.8,0,0,1,3.4-.7,7.5,7.5,0,0,1,3.4.8,8.6,8.6,0,0,1,2.7,2.1,9.4,9.4,0,0,1,1.7,2.9,9.5,9.5,0,0,1,.6,3.3,9.1,9.1,0,0,1-.6,3.4A9.2,9.2,0,0,1,318,37a8.5,8.5,0,0,1-2.7,2A7.8,7.8,0,0,1,312,39.7Zm-4.9-9a7.4,7.4,0,0,0,.3,2.2,6,6,0,0,0,1,1.9,4.9,4.9,0,0,0,1.6,1.3,4.3,4.3,0,0,0,2.1.5,4.2,4.2,0,0,0,2.1-.5,4.8,4.8,0,0,0,1.5-1.4,6.3,6.3,0,0,0,1-1.9,7.3,7.3,0,0,0,.3-2.2,7.1,7.1,0,0,0-.4-2.2,6.2,6.2,0,0,0-1-1.9,4.8,4.8,0,0,0-1.5-1.3,4.3,4.3,0,0,0-2.1-.5,4.2,4.2,0,0,0-2.1.5,5,5,0,0,0-1.5,1.3,6,6,0,0,0-1,1.9A7.3,7.3,0,0,0,307,30.7Z" fill="#231f20"/><path d="M335.5,37.5a6.4,6.4,0,0,1-4.7,2.1,7.1,7.1,0,0,1-3.2-.7,8.5,8.5,0,0,1-2.6-2,9.6,9.6,0,0,1-1.7-2.9,9.4,9.4,0,0,1-.6-3.4,9.2,9.2,0,0,1,.6-3.4,8.8,8.8,0,0,1,1.8-2.8,8.6,8.6,0,0,1,2.7-1.9,8.5,8.5,0,0,1,7.5.3,6.7,6.7,0,0,1,2.6,2.8l-2.6,1.9a4.8,4.8,0,0,0-1.8-2,4.7,4.7,0,0,0-2.5-.7,4.1,4.1,0,0,0-2,.5,4.6,4.6,0,0,0-1.5,1.3,6.4,6.4,0,0,0-1,1.9,7.3,7.3,0,0,0-.4,2.3,7.1,7.1,0,0,0,.4,2.3,5.9,5.9,0,0,0,1,1.9,5,5,0,0,0,1.6,1.3,4.4,4.4,0,0,0,2,.5,5.7,5.7,0,0,0,4.4-2.4V32.9h-3.6V30.4h6.4v9.1h-2.8Z" fill="#231f20"/><path d="M342.8,21.8l4.4,8.5,4.4-8.5h3.7l-6.5,11.5v6.2h-3.4V33.3l-6.4-11.5Z" fill="#231f20"/></g></g></svg>