<svg id="Layer_1" data-name="Layer 1" xmlns="http://www.w3.org/2000/svg" viewBox="0 0 469.25 23.06"><defs><style>.cls-1{fill:#231f20;}</style></defs><title>Artboard 1</title><path class="cls-1" d="M6.35,18A6.41,6.41,0,0,1,1.71,16.1C0,14.36,0,12.4,0,9S0,3.64,1.71,1.9A6.4,6.4,0,0,1,6.35,0a6.08,6.08,0,0,1,6.31,5.44H9.93a3.65,3.65,0,0,0-6.18-2c-.87.94-1.07,2-1.07,5.51s.2,4.57,1.07,5.51a3.53,3.53,0,0,0,2.61,1.07,3.57,3.57,0,0,0,3.6-3h2.71A6.1,6.1,0,0,1,6.35,18Z"/><path class="cls-1" d="M24,16.46A5.09,5.09,0,0,1,20.2,18a5,5,0,0,1-3.75-1.49c-1.19-1.24-1.49-2.83-1.49-5s.3-3.7,1.49-4.94A5,5,0,0,1,20.2,5.1,5.09,5.09,0,0,1,24,6.59c1.19,1.24,1.49,2.83,1.49,4.94S25.17,15.22,24,16.46ZM22.06,8.05a2.56,2.56,0,0,0-1.86-.72,2.51,2.51,0,0,0-1.84.72c-.77.77-.87,2.08-.87,3.45s.1,2.68.87,3.45a2.53,2.53,0,0,0,1.84.74A2.59,2.59,0,0,0,22.06,15c.77-.77.87-2.08.87-3.45S22.82,8.82,22.06,8.05Z"/><path class="cls-1" d="M31.89,17.8a3.21,3.21,0,0,1-3.45-3.47V.1H31v14c0,1,.35,1.46,1.37,1.46h1.12V17.8Z"/><path class="cls-1" d="M39.24,17.8a3.21,3.21,0,0,1-3.42-3.47V.1h2.5v14c0,1,.35,1.46,1.37,1.46h1.13V17.8Z"/><path class="cls-1" d="M45.07,12.24c0,2.16,1.14,3.52,3.2,3.52a3.76,3.76,0,0,0,3-1.29L52.93,16a5.91,5.91,0,0,1-4.72,2c-3.15,0-5.66-1.66-5.66-6.46,0-4.07,2.11-6.43,5.34-6.43s5.34,2.48,5.34,6.06v1.12Zm5.31-3.47A2.6,2.6,0,0,0,47.9,7.18a2.63,2.63,0,0,0-2.51,1.59,4,4,0,0,0-.32,1.71h5.66a4,4,0,0,0-.34-1.71Z"/><path class="cls-1" d="M60.41,23A5.82,5.82,0,0,1,56,21.38l1.61-1.62a3.54,3.54,0,0,0,2.73,1.12c2.14,0,3-1.51,3-3.2V16.1A3.88,3.88,0,0,1,60,17.5a4.17,4.17,0,0,1-3-1.12c-1.22-1.22-1.41-3-1.41-5.11s.2-3.9,1.41-5.11a4.21,4.21,0,0,1,3-1.09,3.85,3.85,0,0,1,3.3,1.49V5.22h2.5V17.73A5,5,0,0,1,60.41,23Zm.3-15.71c-2.28,0-2.58,2-2.58,4s.3,4,2.58,4,2.56-2,2.56-4S63,7.33,60.71,7.33Z"/><path class="cls-1" d="M71.28,12.24c0,2.16,1.14,3.52,3.2,3.52a3.76,3.76,0,0,0,3.05-1.29L79.14,16a5.91,5.91,0,0,1-4.72,2c-3.15,0-5.66-1.66-5.66-6.46.06-4.09,2.13-6.42,5.35-6.42s5.34,2.48,5.34,6.06v1.12Zm5.31-3.47a2.59,2.59,0,0,0-2.48-1.59A2.63,2.63,0,0,0,71.6,8.77a4,4,0,0,0-.32,1.71h5.66a4,4,0,0,0-.34-1.71Z"/><path class="cls-1" d="M96.38,16.46A5.09,5.09,0,0,1,92.61,18a5,5,0,0,1-3.79-1.49c-1.19-1.24-1.49-2.83-1.49-5s.3-3.7,1.49-4.94A5,5,0,0,1,92.61,5.1a5.09,5.09,0,0,1,3.77,1.49c1.19,1.24,1.49,2.83,1.49,4.94S97.57,15.22,96.38,16.46ZM94.47,8.05a2.57,2.57,0,0,0-1.86-.72,2.51,2.51,0,0,0-1.84.72c-.77.77-.87,2.08-.87,3.45s.1,2.68.87,3.45a2.53,2.53,0,0,0,1.84.74A2.59,2.59,0,0,0,94.47,15c.77-.77.87-2.08.87-3.45S95.24,8.82,94.47,8.05Z"/><path class="cls-1" d="M103.82,7.38V17.8h-2.53V7.38H99.82V5.44h1.44V3.5a3.28,3.28,0,0,1,3-3.5h2V2.16h-1.08a1.28,1.28,0,0,0-1.4,1.47V5.44h2.51V7.38Z"/><path class="cls-1" d="M114.5,17.8V.1h11.32V2.51h-8.61V7.7h7.35v2.4h-7.35v5.31h8.61V17.8Z"/><path class="cls-1" d="M136,17.8V16.46A3.87,3.87,0,0,1,132.66,18a4.35,4.35,0,0,1-3.08-1.12c-1.27-1.27-1.41-3.42-1.41-5.34s.15-4,1.41-5.31a4.29,4.29,0,0,1,3.06-1.08,3.9,3.9,0,0,1,3.3,1.41V.1h2.53V17.8ZM133.33,7.32c-2.28,0-2.63,1.94-2.63,4.17s.35,4.2,2.63,4.2,2.61-2,2.61-4.2-.32-4.16-2.6-4.16Z"/><path class="cls-1" d="M149.69,17.8V16.53A4.5,4.5,0,0,1,146.34,18a4.37,4.37,0,0,1-3.1-1.14A4.62,4.62,0,0,1,142,13.26v-8h2.53v7.67c0,2,1.12,2.8,2.53,2.8a2.51,2.51,0,0,0,2.61-2.8V5.22h2.53V17.8Z"/><path class="cls-1" d="M160.76,18c-2.83,0-5.61-1.74-5.61-6.46s2.79-6.39,5.61-6.39a5.17,5.17,0,0,1,4.15,1.76l-1.74,1.69a2.93,2.93,0,0,0-2.41-1.19,2.84,2.84,0,0,0-2.33,1.12,4.66,4.66,0,0,0-.75,3,4.74,4.74,0,0,0,.75,3.08,2.84,2.84,0,0,0,2.33,1.12,2.93,2.93,0,0,0,2.41-1.19l1.74,1.66A5.19,5.19,0,0,1,160.76,18Z"/><path class="cls-1" d="M174.22,17.8V16.66a4.14,4.14,0,0,1-3.4,1.29,4.44,4.44,0,0,1-3.38-1.14,3.86,3.86,0,0,1-1-2.71c0-2.11,1.46-3.62,4.34-3.62h3.33V9.59c0-1.59-.79-2.36-2.76-2.36a3,3,0,0,0-2.76,1.22l-1.66-1.56c1.19-1.39,2.43-1.81,4.52-1.81,3.45,0,5.19,1.46,5.19,4.32v8.4Zm0-5.56h-3c-1.49,0-2.26.67-2.26,1.81s.72,1.79,2.31,1.79a3,3,0,0,0,2.35-.74,2.53,2.53,0,0,0,.55-1.86Z"/><path class="cls-1" d="M184,17.8a3.28,3.28,0,0,1-3.45-3.5V7.38h-1.44V5.44h1.44V1.62H183V5.44h2.43V7.38H183v6.8a1.28,1.28,0,0,0,1.39,1.46h1V17.8Z"/><path class="cls-1" d="M188.22,2.73V.1h2.68V2.78Zm.08,15.07V5.22h2.52V17.8Z"/><path class="cls-1" d="M202.82,16.46A5.09,5.09,0,0,1,199.05,18a5,5,0,0,1-3.75-1.49c-1.19-1.24-1.49-2.83-1.49-5s.3-3.7,1.49-4.94a5,5,0,0,1,3.79-1.42,5.09,5.09,0,0,1,3.73,1.46c1.19,1.24,1.49,2.83,1.49,4.94S204.05,15.22,202.82,16.46Zm-1.91-8.41a2.57,2.57,0,0,0-1.86-.72,2.5,2.5,0,0,0-1.84.72c-.77.77-.87,2.08-.87,3.45s.1,2.68.87,3.45a2.53,2.53,0,0,0,1.84.74,2.59,2.59,0,0,0,1.86-.74c.77-.77.87-2.08.87-3.45s-.06-2.68-.83-3.45Z"/><path class="cls-1" d="M215.05,17.8V10.1c0-2-1.12-2.81-2.53-2.81a2.51,2.51,0,0,0-2.61,2.81v7.7h-2.53V5.22h2.44V6.49a4.5,4.5,0,0,1,3.39-1.39,4.36,4.36,0,0,1,3.1,1.14,4.62,4.62,0,0,1,1.27,3.55v8Z"/><path class="cls-1" d="M232.42,12.22v4.17h-2.36V12.22h-4.17V9.86h4.17V5.71h2.36V9.86h4.17v2.36Z"/><path class="cls-1" d="M255.19,17.8V10.1H248v7.7h-2.68V.1H248V7.64h7.17V.1h2.63V17.8Z"/><path class="cls-1" d="M269.38,17.8V16.53A4.5,4.5,0,0,1,266,18a4.36,4.36,0,0,1-3.1-1.14,4.62,4.62,0,0,1-1.27-3.55v-8h2.53v7.67c0,2,1.12,2.8,2.53,2.8a2.51,2.51,0,0,0,2.61-2.8V5.22h2.49V17.8Z"/><path class="cls-1" d="M290.82,17.8V10.1c0-2-1.12-2.81-2.53-2.81A2.49,2.49,0,0,0,285.68,10V17.8h-2.53V10.1c0-2-1.12-2.81-2.53-2.81A2.51,2.51,0,0,0,278,10.1v7.7h-2.53V5.22H278V6.49a4.56,4.56,0,0,1,3.35-1.39,4,4,0,0,1,3.57,1.84,4.78,4.78,0,0,1,3.93-1.84A4.55,4.55,0,0,1,292,6.24a4.67,4.67,0,0,1,1.34,3.55v8Z"/><path class="cls-1" d="M303.64,17.8V16.66A4.14,4.14,0,0,1,300.29,18a4.45,4.45,0,0,1-3.38-1.14,3.86,3.86,0,0,1-1-2.71c0-2.11,1.46-3.62,4.34-3.62h3.33V9.59c0-1.59-.8-2.36-2.76-2.36a3,3,0,0,0-2.76,1.22L296.4,6.89c1.21-1.4,2.42-1.79,4.53-1.79,3.45,0,5.19,1.46,5.19,4.32V17.8Zm0-5.56h-3c-1.49,0-2.26.67-2.26,1.81s.72,1.79,2.31,1.79a3,3,0,0,0,2.36-.72,2.53,2.53,0,0,0,.55-1.86Z"/><path class="cls-1" d="M317.29,17.8V10.1c0-2-1.12-2.81-2.53-2.81a2.51,2.51,0,0,0-2.61,2.81v7.7h-2.53V5.22h2.48V6.49a4.5,4.5,0,0,1,3.35-1.39,4.37,4.37,0,0,1,3.1,1.14,4.62,4.62,0,0,1,1.27,3.52v8Z"/><path class="cls-1" d="M340,16.1a6.31,6.31,0,0,1-4.57,1.66h-6.21V.1h6.21A6.31,6.31,0,0,1,340,1.76c1.91,1.91,1.79,4.49,1.79,7S341.82,14.23,340,16.1ZM338.12,3.73a3.82,3.82,0,0,0-3-1.19h-3.3V15.39h3.25a3.83,3.83,0,0,0,3-1.19c.92-1,.94-2.93.94-5.36S339,4.75,338.12,3.73Z"/><path class="cls-1" d="M346.88,12.24c0,2.16,1.14,3.52,3.2,3.52a3.76,3.76,0,0,0,3-1.29L354.74,16A5.91,5.91,0,0,1,350,18c-3.15,0-5.66-1.66-5.66-6.46,0-4.07,2.11-6.43,5.34-6.43S355,7.57,355,11.15v1.12Zm5.31-3.47a2.59,2.59,0,0,0-2.48-1.59,2.63,2.63,0,0,0-2.51,1.59,4,4,0,0,0-.32,1.71h5.66A4,4,0,0,0,352.19,8.77Z"/><path class="cls-1" d="M362.82,17.8h-2L356.2,5.22h2.62l3,8.88,3-8.86h2.68Z"/><path class="cls-1" d="M371.15,12.24c0,2.16,1.14,3.52,3.2,3.52a3.76,3.76,0,0,0,3-1.29L379,16a5.91,5.91,0,0,1-4.72,2c-3.15,0-5.66-1.66-5.66-6.46,0-4.07,2.11-6.43,5.34-6.43s5.34,2.48,5.34,6.06v1.12Zm5.31-3.47A2.59,2.59,0,0,0,374,7.18a2.63,2.63,0,0,0-2.51,1.59,4,4,0,0,0-.32,1.71h5.67a4,4,0,0,0-.36-1.71Z"/><path class="cls-1" d="M385.65,17.8a3.21,3.21,0,0,1-3.45-3.47V.1h2.53v14c0,1,.35,1.46,1.37,1.46h1.12V17.8Z"/><path class="cls-1" d="M398,16.46A5.1,5.1,0,0,1,394.24,18a5,5,0,0,1-3.75-1.49c-1.19-1.24-1.49-2.83-1.49-5s.3-3.7,1.49-4.94a5,5,0,0,1,3.75-1.42A5.09,5.09,0,0,1,398,6.59c1.19,1.24,1.49,2.83,1.49,4.94S399.2,15.22,398,16.46ZM396.1,8.05a2.57,2.57,0,0,0-1.86-.72,2.5,2.5,0,0,0-1.84.72c-.77.77-.87,2.08-.87,3.45s.1,2.68.87,3.45a2.53,2.53,0,0,0,1.84.74A2.59,2.59,0,0,0,396.1,15c.77-.77.87-2.08.87-3.45A5.12,5.12,0,0,0,396.1,8.05Z"/><path class="cls-1" d="M411.44,16.83a4.29,4.29,0,0,1-3,1.12,3.91,3.91,0,0,1-3.3-1.44v6.38h-2.53V5.22H405V6.56a3.87,3.87,0,0,1,3.32-1.46,4.35,4.35,0,0,1,3.08,1.12c1.27,1.27,1.41,3.4,1.41,5.31S412.7,15.57,411.44,16.83Zm-3.72-9.51c-2.28,0-2.63,1.94-2.63,4.17s.35,4.2,2.63,4.2,2.61-2,2.61-4.2-.33-4.16-2.62-4.16Z"/><path class="cls-1" d="M431.24,17.8V10.1c0-2-1.12-2.81-2.53-2.81A2.49,2.49,0,0,0,426.1,10V17.8h-2.53V10.1c0-2-1.12-2.81-2.53-2.81a2.51,2.51,0,0,0-2.6,2.81v7.7h-2.53V5.22h2.48V6.49a4.56,4.56,0,0,1,3.35-1.39,4,4,0,0,1,3.57,1.84,4.79,4.79,0,0,1,3.95-1.84,4.56,4.56,0,0,1,3.18,1.14,4.68,4.68,0,0,1,1.38,3.52v8Z"/><path class="cls-1" d="M439.16,12.24c0,2.16,1.14,3.52,3.2,3.52a3.76,3.76,0,0,0,3-1.29L447,16a5.91,5.91,0,0,1-4.72,2c-3.15,0-5.66-1.66-5.66-6.46,0-4.07,2.11-6.43,5.34-6.43s5.34,2.48,5.34,6.06v1.12Zm5.31-3.47A2.6,2.6,0,0,0,442,7.18a2.63,2.63,0,0,0-2.51,1.59,4,4,0,0,0-.32,1.71h5.66a4,4,0,0,0-.34-1.71Z"/><path class="cls-1" d="M458,17.8V10.1c0-2-1.12-2.81-2.53-2.81a2.51,2.51,0,0,0-2.63,2.81v7.7h-2.53V5.22h2.53V6.49a4.5,4.5,0,0,1,3.32-1.39,4.36,4.36,0,0,1,3.1,1.14,4.62,4.62,0,0,1,1.27,3.55v8Z"/><path class="cls-1" d="M467.82,17.8a3.28,3.28,0,0,1-3.45-3.5V7.38h-1.44V5.44h1.44V1.62h2.45V5.44h2.43V7.38h-2.43v6.8a1.28,1.28,0,0,0,1.39,1.46h1V17.8Z"/></svg>